<?xml version="1.0" standalone="no"?><!DOCTYPE svg PUBLIC "-//W3C//DTD SVG 1.1//EN" "http://www.w3.org/Graphics/SVG/1.1/DTD/svg11.dtd"><svg t="1613441631083" class="icon" viewBox="0 0 1024 1024" version="1.1" xmlns="http://www.w3.org/2000/svg" p-id="5806" xmlns:xlink="http://www.w3.org/1999/xlink" width="200" height="200"><defs><style type="text/css"></style></defs><path d="M986.624 890.88H69.632V97.28c0-18.432-15.36-33.792-34.816-33.792S0 78.848 0 97.28v825.856c0 11.264 6.144 22.016 15.36 28.16 7.168 6.144 16.384 9.728 26.112 9.728h945.152c20.48 0 37.376-15.36 37.376-34.816s-16.896-35.328-37.376-35.328z" p-id="5807"></path><path d="M159.744 722.432c9.216 0 18.432-3.584 25.088-10.24L354.304 542.72l152.064 152.064c13.824 13.824 36.352 13.824 50.688 0l332.8-332.8c10.24-10.24 13.312-25.6 7.68-38.912-5.632-13.312-18.432-22.016-32.768-22.016h-237.568c-19.456 0-35.84 15.872-35.84 35.84s15.872 35.84 35.84 35.84H778.24L531.456 619.52 379.392 467.456c-13.824-13.824-36.352-13.824-50.688 0l-194.56 194.56c-13.824 13.824-13.824 36.352 0 50.688 7.68 6.656 16.384 9.728 25.6 9.728z" p-id="5808"></path></svg>